<svg width="256" height="230" viewBox="0 0 256 230" fill="none" xmlns="http://www.w3.org/2000/svg">
<g id="Design">
<path id="Vector" d="M156.239 51.4373C120.089 25.8676 72.1802 25.7316 36.9116 53.9464" stroke="#202020" stroke-linecap="round" stroke-linejoin="round"/>
<path id="Vector_2" d="M177.437 194.471C205.651 159.202 205.615 110.513 179.164 74.3631" stroke="#202020" stroke-linecap="round" stroke-linejoin="round"/>
<path id="Vector_3" d="M24.0713 41.6329L1 64.6977L24.0644 87.7687L47.1358 64.7038L24.0713 41.6329Z" stroke="#202020" stroke-linecap="round" stroke-linejoin="round"/>
<path id="Vector_4" d="M170.764 35.5787L147.696 58.6468L170.766 81.716L193.834 58.6479L170.764 35.5787Z" stroke="#202020" stroke-linecap="round" stroke-linejoin="round"/>
<path id="Vector_5" d="M165.131 182.686L142.066 205.757L165.137 228.821L188.202 205.75L165.131 182.686Z" stroke="#202020" stroke-linecap="round" stroke-linejoin="round"/>
<path id="Vector_6" d="M247.517 125.333L240.035 132.815L247.519 140.298L255.001 132.815L247.517 125.333Z" stroke="#202020" stroke-linecap="round" stroke-linejoin="round"/>
<g id="Group">
<g id="Group_2">
<path id="Vector_7" d="M184.454 69.0719L192.39 77.0086" stroke="#202020" stroke-linecap="round" stroke-linejoin="round"/>
<path id="Vector_8" d="M209.143 94.643L226.777 111.395" stroke="#202020" stroke-linecap="round" stroke-linejoin="round" stroke-dasharray="1.07 1.07"/>
<path id="Vector_9" d="M234.712 120.212L243.529 128.149" stroke="#202020" stroke-linecap="round" stroke-linejoin="round"/>
</g>
</g>
<g id="Group_3">
<g id="Group_4">
<path id="Vector_10" d="M128.025 13.5256L144.777 30.2773" stroke="#202020" stroke-linecap="round" stroke-linejoin="round" stroke-dasharray="1.04 1.04"/>
<path id="Vector_11" d="M152.713 38.212L160.649 46.1487" stroke="#202020" stroke-linecap="round" stroke-linejoin="round"/>
</g>
</g>
</g>
</svg>
