<svg width="316" height="358" viewBox="0 0 316 358" fill="none" xmlns="http://www.w3.org/2000/svg">
<path fill-rule="evenodd" clip-rule="evenodd" d="M250.592 191.968C265.467 206.75 297.216 215.714 309.33 217.954C297.431 230.624 277.933 227.626 269.304 226.299C265.062 225.647 263.446 225.398 266.649 227.613C273.307 232.216 280.957 231.719 288.648 231.219C292.183 230.989 295.728 230.759 299.188 231.023C310.175 231.863 318.626 239.791 315.246 243.151C313.848 244.54 307.177 244.556 299.055 244.576C287.534 244.604 273.093 244.639 266.649 248.61C263.645 250.461 259.187 253.467 254.019 256.952C240.287 266.21 221.54 278.85 211.715 282.206L211.319 282.342C197.897 286.925 182.952 292.029 180.023 308.663C178.343 318.199 180.069 324.369 181.643 329.995C182.841 334.279 183.951 338.248 183.403 343.15C182.136 354.489 155.513 359.057 154.668 357.797C154.309 357.261 155.403 356.353 156.682 355.294C158.407 353.864 160.467 352.156 159.739 350.709C159.072 349.383 154.077 349.424 149.431 349.462C145.247 349.497 141.346 349.529 141.146 348.558C140.925 347.488 143.931 345.933 146.793 344.451C149.413 343.095 151.912 341.802 151.71 340.999C151.543 340.335 149.892 339.905 148.314 339.494C146.697 339.072 145.158 338.671 145.372 338.059C145.569 337.496 150.105 337.195 155.095 336.864C160.804 336.485 167.108 336.067 168.191 335.171C170.726 333.071 174.107 322.992 162.697 306.614C153.57 293.512 133.54 290.236 124.666 290.236L139.456 296.484C139.269 298.855 138.926 302.083 138.552 305.609C137.8 312.701 136.92 320.995 136.92 325.932C136.92 330.302 137.866 331.29 138.594 332.05C139.405 332.898 139.947 333.463 138.611 338.111C136.075 346.93 102.269 351.549 101.847 346.51C101.635 343.977 104.517 343.141 107.062 342.404C109.582 341.674 111.77 341.039 110.298 338.95C108.708 336.693 104.92 336.969 101.953 337.185C99.4014 337.371 97.4574 337.513 98.0436 335.96C98.829 333.878 103.67 333.267 107.339 332.804C109.593 332.519 111.405 332.291 111.566 331.811C111.83 331.024 110.61 330.709 108.937 330.276C107.931 330.016 106.761 329.713 105.65 329.24C103.284 328.232 105.65 327.243 107.763 327.612C109.876 327.98 125.511 327.472 125.933 325.092C127.962 300.567 119.595 293.545 111.988 288.505C110.126 287.272 107.251 286.126 103.524 284.642C92.0272 280.063 72.4246 272.257 49.4479 248.661C19.2767 217.678 30.8592 193.005 45.1641 162.534C48.8908 154.595 52.8024 146.263 56.2085 137.323C69.3927 102.72 62.9696 83.8499 58.7439 74.751C44.2162 75.1119 36.7547 67.614 32.3511 63.1889C31.6311 62.4654 30.9929 61.824 30.4189 61.3126C9.12126 61.3126 0.416279 57.953 0.00639636 53.3336C-0.403486 48.7141 19.0221 45.7745 19.0221 45.7745C19.0221 45.7745 25.0022 43.6639 27.4609 42.8348C27.4609 39.7436 30.2193 38.0128 32.2809 36.7192C33.132 36.1852 33.8643 35.7257 34.2347 35.2758C27.4736 33.596 27.051 27.7167 28.7413 26.4568C30.0935 25.4489 35.9256 27.7679 38.4611 29.4477C41.1655 21.0487 39.0245 9.15014 37.6159 4.25071C55.533 -4.82019 67.9003 2.7109 71.8443 7.61031C63.3999 29.1897 66.4349 30.6146 68.9333 31.7876C69.0603 31.8472 69.1862 31.9063 69.3088 31.9673C70.3132 32.4663 72.0468 32.2325 73.7481 32.0031C76.3416 31.6532 78.86 31.3136 78.6048 33.596C78.3387 35.9763 68.8856 38.2154 68.8856 38.2154C68.8856 38.2154 78.7512 42.9874 89.1691 66.772C100.861 93.465 97.4889 122.93 95.23 142.668C93.8641 154.604 92.9052 162.983 95.9308 165.04C103.423 170.134 117.906 164.06 126.676 160.381C127.304 160.118 127.904 159.866 128.469 159.632C176.22 149.973 231.999 173.49 250.592 191.968ZM91.2825 102.048C90.2683 66.436 75.6473 47.7343 68.4636 42.8348L66.3507 52.4937C70.4074 57.1971 76.2107 68.4518 78.6053 73.4911H81.9859C86.3806 81.2182 90.0148 95.7485 91.2825 102.048ZM114.101 173.859C118.891 170.779 134.807 162.52 161.852 164.2C188.897 165.88 215.096 175.959 236.225 191.077L192.7 182.678L184.248 186.877C172.557 180.298 143.174 169.828 114.101 173.859ZM67.1959 8.39899C65.8436 9.74283 61.2799 19.7376 60.8573 29.3965L55.7864 28.5566L57.4767 5.03939C62.9701 5.45934 66.2099 7.55909 67.1959 8.39899ZM85.6157 169.428C83.4034 170.457 80.0014 172.039 74.8022 175.539C78.887 165.32 91.705 119.266 91.705 119.266C91.705 119.266 89.5922 157.481 89.5922 163.78C89.5922 167.579 88.9774 167.865 85.6157 169.428ZM21.9675 48.5294C21.9675 47.5006 26.6157 46.2407 26.6157 47.6895C26.6157 49.1382 21.9675 49.5581 21.9675 48.5294ZM39.4178 47.3755C37.7275 44.8558 40.2614 40.6563 42.7976 39.8164C45.3338 38.9766 50.1504 39.3965 50.8265 44.4359C51.6717 50.7351 41.1081 49.8952 39.4178 47.3755Z" fill="#202020"/>
</svg>
