<svg width="22" height="22" viewBox="0 0 22 22" fill="none" xmlns="http://www.w3.org/2000/svg">
<g id="Instagram_Glyph_Black 1" clip-path="url(#clip0_323_775)">
<path id="Vector" d="M6.59957 0.449309C5.46907 0.502646 4.69706 0.683059 4.02216 0.948259C3.32367 1.22047 2.73164 1.58576 2.14259 2.17693C1.55354 2.76811 1.1908 3.36056 0.920505 4.06011C0.658917 4.7365 0.481692 5.50915 0.431755 6.64028C0.381817 7.77142 0.370767 8.13501 0.376292 11.0203C0.381817 13.9057 0.394567 14.2673 0.449392 15.4008C0.503367 16.5311 0.683142 17.3029 0.948342 17.978C1.22098 18.6765 1.58584 19.2683 2.17723 19.8576C2.76862 20.4468 3.36064 20.8087 4.06189 21.0794C4.73764 21.3406 5.51051 21.5187 6.64143 21.5682C7.77236 21.6177 8.13637 21.6292 11.0208 21.6237C13.9053 21.6181 14.2685 21.6054 15.4017 21.5516C16.535 21.4979 17.3028 21.3168 17.9781 21.0529C18.6766 20.7796 19.2688 20.4154 19.8577 19.8238C20.4465 19.2322 20.809 18.6393 21.0791 17.9393C21.3409 17.2636 21.5188 16.4907 21.5679 15.3606C21.6174 14.2265 21.6291 13.8644 21.6235 10.9795C21.618 8.09464 21.605 7.73296 21.5513 6.59991C21.4975 5.46686 21.3175 4.6974 21.0525 4.02186C20.7795 3.32337 20.415 2.73198 19.8239 2.1423C19.2327 1.55261 18.6394 1.1903 17.9396 0.920846C17.2635 0.659259 16.491 0.480971 15.3601 0.432096C14.2292 0.383221 13.8652 0.370684 10.9796 0.376209C8.09408 0.381734 7.73283 0.394059 6.59957 0.449309ZM6.72367 19.6568C5.68773 19.6117 5.12524 19.4396 4.75039 19.2955C4.25399 19.1043 3.90039 18.8731 3.52682 18.5031C3.15324 18.1331 2.92374 17.7783 2.72994 17.2829C2.58438 16.9081 2.40907 16.3462 2.36062 15.3103C2.30792 14.1906 2.29687 13.8544 2.2907 11.0178C2.28454 8.18112 2.29538 7.84537 2.34447 6.72528C2.38867 5.6902 2.56185 5.12707 2.70572 4.75243C2.89697 4.2554 3.12732 3.90243 3.49813 3.52907C3.86894 3.15571 4.22275 2.92578 4.71852 2.73198C5.09294 2.58578 5.65479 2.41196 6.69031 2.36266C7.81082 2.30953 8.14657 2.29891 10.9828 2.29275C13.819 2.28658 14.1556 2.29721 15.2766 2.34651C16.3117 2.39156 16.875 2.56305 17.2492 2.70776C17.7458 2.89901 18.0992 3.12872 18.4726 3.50017C18.8459 3.87162 19.0761 4.22416 19.2699 4.72098C19.4163 5.09435 19.5901 5.65598 19.639 6.69213C19.6923 7.81265 19.7044 8.14861 19.7095 10.9846C19.7146 13.8207 19.7047 14.1575 19.6556 15.2771C19.6103 16.3131 19.4386 16.8758 19.2943 17.251C19.1031 17.7472 18.8725 18.101 18.5015 18.4742C18.1305 18.8473 17.7771 19.0773 17.2811 19.2711C16.9071 19.4171 16.3446 19.5913 15.3099 19.6406C14.1894 19.6933 13.8537 19.7044 11.0164 19.7105C8.17908 19.7167 7.84439 19.7052 6.72388 19.6568M15.3854 5.3213C15.3858 5.57349 15.461 5.81989 15.6015 6.02933C15.7419 6.23878 15.9414 6.40187 16.1745 6.49797C16.4077 6.59407 16.6641 6.61887 16.9114 6.56922C17.1586 6.51958 17.3856 6.39773 17.5636 6.21908C17.7416 6.04042 17.8626 5.813 17.9113 5.56556C17.9601 5.31813 17.9343 5.0618 17.8374 4.82899C17.7404 4.59618 17.5766 4.39736 17.3667 4.25766C17.1567 4.11796 16.91 4.04367 16.6578 4.04417C16.3198 4.04485 15.9958 4.17977 15.7572 4.41926C15.5185 4.65876 15.3848 4.98322 15.3854 5.3213ZM5.54451 11.0106C5.55046 14.0238 7.99761 16.461 11.0102 16.4552C14.0228 16.4495 16.4617 14.0026 16.456 10.9893C16.4502 7.97606 14.0024 5.53826 10.9894 5.54421C7.97636 5.55016 5.53877 7.99773 5.54451 11.0106ZM7.45828 11.0067C7.45689 10.3062 7.66326 9.62108 8.05128 9.03788C8.43929 8.45467 8.99154 7.99962 9.63817 7.73028C10.2848 7.46093 10.9968 7.38939 11.6841 7.52468C12.3714 7.65998 13.0031 7.99605 13.4994 8.49039C13.9957 8.98473 14.3343 9.61514 14.4723 10.3019C14.6103 10.9886 14.5416 11.7009 14.2748 12.3486C14.008 12.9963 13.5552 13.5503 12.9735 13.9407C12.3919 14.331 11.7075 14.5401 11.007 14.5415C10.5419 14.5424 10.0811 14.4518 9.65107 14.2747C9.22098 14.0975 8.83001 13.8374 8.50046 13.5092C8.17092 13.181 7.90927 12.791 7.73045 12.3616C7.55163 11.9323 7.45914 11.4719 7.45828 11.0067Z" fill="white"/>
</g>
<defs>
<clipPath id="clip0_323_775">
<rect width="21.25" height="21.25" fill="white" transform="translate(0.375 0.375)"/>
</clipPath>
</defs>
</svg>
