<svg width="212" height="197" viewBox="0 0 212 197" fill="none" xmlns="http://www.w3.org/2000/svg">
<g id="Group">
<path id="Vector" d="M183.387 54.045H211L210.273 189.928H141.968" stroke="#231F20" stroke-linecap="round" stroke-linejoin="round"/>
<path id="Vector_2" d="M26.4326 25.7059L27.886 1L157.955 11.8997L155.776 25.7059" stroke="#231F20" stroke-linecap="round" stroke-linejoin="round"/>
<path id="Vector_3" d="M144.15 163.042L141.97 196.468L11.8999 186.295L14.8067 163.042" stroke="#231F20" stroke-linecap="round" stroke-linejoin="round"/>
<path id="Vector_4" d="M183.388 25.7061H1V162.315H183.388V25.7061Z" stroke="#231F20" stroke-linecap="round" stroke-linejoin="round"/>
<path id="Vector_5" d="M87.4706 80.2046C86.7439 80.2046 86.7436 80.2046 63.4909 90.3776L66.3977 64.945C66.3977 62.0384 63.4912 62.0385 60.5846 62.0385C44.5984 62.0385 31.5188 73.6647 29.3389 89.6509C27.1589 108.544 41.6918 124.53 60.5846 124.53C76.5708 124.53 89.6503 112.904 91.8303 96.9174C92.5569 93.2841 91.8304 80.2046 87.4706 80.2046Z" stroke="#231F20" stroke-linecap="round" stroke-linejoin="round"/>
<path id="Vector_6" d="M119.442 117.263H155.774" stroke="#231F20" stroke-linecap="round" stroke-linejoin="round"/>
<path id="Vector_7" d="M119.442 89.6505H155.774" stroke="#231F20" stroke-linecap="round" stroke-linejoin="round"/>
<path id="Vector_8" d="M119.442 62.0385H155.774" stroke="#231F20" stroke-linecap="round" stroke-linejoin="round"/>
</g>
</svg>
