<svg width="162" height="162" viewBox="0 0 162 162" fill="none" xmlns="http://www.w3.org/2000/svg">
<g id="SERM">
<path id="Vector" d="M24.3334 24.3334C-6.7778 55.4446 -6.7778 106.555 24.3334 137.667C55.4446 168.778 106.555 168.778 137.667 137.667C168.778 106.555 168.778 55.4446 137.667 24.3334C106.555 -6.7778 55.4446 -6.7778 24.3334 24.3334Z" stroke="#202020" stroke-miterlimit="10" stroke-linecap="round" stroke-linejoin="round"/>
<path id="Vector_2" d="M125.444 67.1108L93.7778 66.5547L83.222 37.1112C82.1109 34.3335 78.7776 34.3335 77.6665 37.1112L67.1107 66.5547L35.4442 67.1108C32.6665 67.1108 31.5551 70.4436 33.7773 72.1103L58.7774 91L49.8886 121C49.333 123.777 52.1104 125.445 54.3327 124.333L80.4443 106.556L106.555 124.333C108.777 126 111.555 123.777 111 121L102.111 91L127.111 72.1103C129.333 70.4436 128.222 67.1108 125.444 67.1108Z" stroke="#202020" stroke-miterlimit="10" stroke-linecap="round" stroke-linejoin="round"/>
</g>
</svg>
